<?xml version='1.0' encoding='utf-8'?>
<svg xmlns="http://www.w3.org/2000/svg" width="247.12mm" height="266.29mm" clip-rule="evenodd" fill-rule="evenodd" image-rendering="optimizeQuality" shape-rendering="geometricPrecision" text-rendering="geometricPrecision" version="1.1" viewBox="0 0 22582 24334">
 <defs>
  <style type="text/css">
   
    .fil3 {fill:#373435}
    .fil2 {fill:#373435}
    .fil0 {fill:#FFF212}
    .fil1 {fill:#F58634}
   
  </style>
 </defs>
  <rect class="fil0" width="22582" height="24334"/>
   <path class="fil1" d="m11281 7586c3757 0 6936 2474 7997 5882-299-35-668-113-1140-258-980-302-1197 481-2833 194-449-79-3010-16-1086-74 700-22 2 669 2024 139 299-78 745 401 1531 197 544-141 666 396 1662 383 143 614 219 1254 219 1911 0 2239-878 4273-2310 5776-170 44-341 100-511 168-880 352-436-543-2134 114-397 154-920-253-1321 33-256 183-648-426 611 148 701 320 1093-289 1671 82 67 43 608-33 1178-57-1479 1313-3425 2110-5558 2110-3290 0-6137-1898-7506-4659 1249 307 1409-91 2258 96 1344 295 1586-69 2420-42 1486 49-595-152-702-122-918 258-784-324-1671-165-1634 295-1295-317-2578-377-384-960-595-2008-595-3105 0-4625 3749-8374 8374-8374z"/>
   <path class="fil2" d="m9961 23794s-69-957-679-1415c-610-457-929-443-1110-485-180-41-332-125-346-291s41-1678-153-2107c-194-430-610-914-1525-1379s-2398-493-2398-493-28-250 1386 0c1414 249 2315 1192 2315 1192s-113-1357-1044-2352c-931-994-1546-1339-1546-1339s552 104 1362 839c811 736 1184 1972 1184 1972s123-1711 503-2609c379-898 770-1163 770-1163s-654 721-888 2112-183 2087-183 2087 161 1073 397 1359c236 287 129-123 292-539s1241-1544 1241-1544-888 887-1101 1538c-213 652-370 1529 234 2125 603 596 647 611 829 720s283 146 283 146 0-815 269-1753c270-938 1369-2471 1494-2663s632-1016 316-2199-433-1572-433-1572 606 1327 765 2524c159 1198-534 1612-534 1612s837-198 1399-1309c563-1110 404-2236 404-2236l174-173s101 2078-578 3015c-678 938-1650 1010-1788 1385-139 375-139 476-139 476s167-245 1596-793c1428-548 2784-173 2784-173s-1399-214-3073 578c-1673 792-1789 980-1789 980s-335 925-409 1432c-74 506-55 479-55 479s239-231 1151-581c913-350 2009-322 2009-322s-516-65-1815 562c-1299 626-1262 838-1253 986 9 147 516 1419 516 1419h-857s23-49 23-48z"/>
   <path class="fil2" d="m5057 18731c-172 51-367 6-292-236 20-63-121 301-265 165-162-153 152-510-96-170-339 464-1643 184-845-426 2-1-373 63-223-141 125-171-237 192-316-97-36-129 137-156 153-195-817 175-1274-1042-24-659 343 104-438-92-89-354 247-186 633 219 409-20-213-227 362-446 450-278 6 1-1264-482-749-1026 380-401 980 298 637-75-202-221-44-405 255-246 263 141-338-235-143-574 164-283 502-207 707 37 12-642 748-439 600 73-59 204 77-556 349-169 188 268-141 628 51 121 90-236 720-215 462 488-1 2 238-352 478-82 212 240-259 580 118 335 194-126 268 69 268 237-31-370 338-428 487-142 41 79-155-427 268-259 2 1-418-245-102-382 189-82-271 240-541 116-305-139 312-448-160-179-131 75-310-106-67-277-60 10-689 349-671-79 2-41 192-145 265-157 1-3-423-57-224-192 331-224-41 265-173-403-102-519 659-514 922-181 1 2-265-457 157-449-48-297 373-597 687-305 122 113-247-326 361-448 495-98 218 627 237 475 40-310 1210-717 1264 0 24 323-539 518-48 298 201-90 559 35 262 295-2 1 392-201 518 191 133 416-900 542-216 451 422-57 354 415-189 415 486 0 329 278 109 278 0 19 471 46 239 278-240 240 48-102 441 79 584 269 28 780-24 776 1 4 591-24 444 225-105 177-484-7-149 135 154 65 156 138 107 199 71 40 118 93 121 152 23 401-78-83 426 11 278 52 235 75 320 220 91 156-364 394-136 291 537-242 401 443 167 453-126 5 270-104 357 23 149 218-205 289-133 272 550-131 285 347 184 375-315 88-55-32-97 151-70 306-364 49-354 130 27 213-404 350-555 146-42-57-239 659-536 306-293-349-66-36-175 88-266 300-548-15-546 35 13 317-321 461-550 330-272-155-62-189-225-23-418 426-575-239-618-139-91 207-348 245-388 144-113-278 165-351 94-314-391 204-531-116-378-435 85-176 15-50 14-41-21 224-354 24-341 56 139 366-234 242-244 249 310 195 137 415-99 368-252-51 258 158-57 358-545 345-549-239-583-15-43 295-619 133-552-14 136-300 31-69-151-38-492 84-150-272-205-253-24 102-453 53-437-100 30-280 339-119-67-125-269-5-364-39-355-127zm94-1942c-22-16-44-33-65-50 11 36 25 73 43 110 8 16 16 33 23 50 1-33 1-69-1-110zm119 823c1 45 2 89 2 132 6-41 7-84-2-132z"/>
   <path class="fil2" d="m11006 14418c-12 250-772 99-316-204-138 23-215-116 8-161 3-1-471-33-301-321 107-183 587 8 230-115-158-54-116-342 280-281 4 1-658-158-588-638 29-202 516-323 646 164 27 99-57-406 326-294 166 48 227 365 180 236-95-262 495-475 495 0 0-433 808-724 617-195-136 375 127-257 447-133 335 129-56 495 167 210 116-148 501-218 315 142-61 119 116-92 288-123 112-20 370-112 345 168-14 159-218 296-29 183 363-216 908 13 607 288-78 71 83-107 290-52 747 198-149 542-17 538 477-15 684 623-45 431-3 0 471 275 265 501-163 178-718-156-666-99 61 68 56 403-419 54-212-156 7-157-122 71-228 402-576-259-504-64 26 69-241 584-498 59-1-2 19 352-339 329-511-32-356-516-436-413-4 5 105 524-403 401-167-41-155-236-104-323 2 0-146 192-189 208-473 175-319-301-251-317-187 140-336-83-114-227 23-15-377 249-199-25 9-13 34-3 34 2z"/>
   <path class="fil3" d="m14293 18705c-152 290-662-35-379-180 15-8-218 118-152-95 56-183 354-84 6-100-149-7-139-283 191-283-404 0-477-654 40-484 252 82-440 5-238-489 225-548 1030-22 743 287-97-225 586-525 462-14-50 204-64-161 313-148 340 12-136 641 123 234 150-235 440 155 72-151-616-511 651-845 659-456 2 72-165-476 344-409 464 60-103 642 209 376 269-231 897 61 336 390-55 32 680-461 680-35 0 358-374 127 147 45 411-65-83 548 111 321 228-266 707 105 413 281 235-375 834-195 509 124-38 37-73 178 123-113 208-307 1232-194 525 306-24 17-152 185-41 29 245-346 924 72 656 385-83 95-637 199-637 116 746 0 745 663 114 661-352-2-341-258-218 19 110 247-238 314-493 88 72 332-303 371-465 68-21-40-77 597-715 296-250-118-87-284-81-275-126 273-886-45-524-311 84-62-402 451-429-180-6-133-95 135-199 32-130-130 164-279-107-94-339 233-62-633-209-157-67 219-760 567-760 24 0 391-408 268-408-3 1-1 60 191-91 279-227 133-476 51-358-290 18 227-537 411-272-94z"/>
   <path class="fil3" d="m13096 21013c-203 166-938-267-443-476 427-180 18 157-62-229-51-250 266-277 392-188-225-159-5-426 177-174 12 0-158-185 155-277 428-125 289 579 284 407-7-226 514-206 313 37-46 56 50-207 310-52 264 159-321 594-9 343 143-116 289 36 139 160-32-83 341-213 341-40 0-97-265-551 368-625 444-53 279 627 353 320 66-270 592-116 372 211-45 67 113-297 321-83 162 167-285 285-9 188 287-100 376 165 107 301-72 36 374-246 463-15 21 53-38 244-120 210 0-44 659-49 528 286-77 199-668 63-660-55 8-129 312 394-171 334-405-51-14-422-196-192-146 186-363-231-222-231 65 345-607 197-442-107 22-42 10 569-374 360-174-94 83-235-90 33-94 144-591 39-487-212 85 0-169 625-518 113-165-242 128-142-112 91-108 105-515 16-352-292-8 62-496 338-467 29 11-114 132 62-170-26-184-53 143-174 281-149z"/>
  <path class="fil2" d="m6592 23112c-24-36-46-76-66-121-266-605 718-780 1114-29 61 117-181-188-80-355 192-317 779 143 825 401 0 1 74 174 34 64-116-317 300-418 505-48 124 223 49 465 87 268 166-867 344 494 404 98 28-183 203-99 308 28-20-116 91-161 215-111 91 37 357 284 302 241-390-302-187-771 393-171 203 210-118 7 87-202 159-161 330 158 333 160 8-30-182-328 106-324 209 2 420 372 422 325 2-35-196-356 141-356 477 0 527 358 545 357 2 0 19-142 28-158 89-150 325-24 455 124 56-104 224-110 456 134 27-19 63-31 102-38 36-64 149-75 265-8l8 1c251 16-195 26-383-401-266-605 718-780 1114-29 62 117-181-188-80-355 192-317 780 143 826 401 0 1 73 174 33 64-115-317 301-418 506-48 124 223 49 465 87 268 166-867 344 494 404 98 27-183 203-99 308 28-20-116 90-161 214-111 91 37 358 284 303 241-391-302-188-771 392-171 203 210-118 7 88-202 158-161 329 158 332 160 8-30-181-328 106-324 210 2 420 372 423 325 1-35-196-356 140-356 478 0 527 358 546 357 1 0 18-142 27-158 90-150 325-24 455 124 62-115 259-111 529 216 139 169 54 67 25-32-53-176 224-210 408 29 1 1 189 232 159 177-209-389 329-221 524-56 12 10 240 216 325 269h29c-40-125 104-156 201-116 49-65 98-121 133-158 169-175 507 79 343 215-105 88 43-62 132 13 86 73-46 183-45 182 204-139 294 77 146 147-114 53 178-86 183 54 2 43-16 65-40 80h-351v4h-103c-52 12-117 7-180 0h-6493c-51 12-116 7-180 0h-5634c-52 12-117 7-180 0h-8946v-4h-381c-16-10-27-24-26-51 4-90 191-1 118-35-95-45-37-184 94-94 0 0-84-70-29-117 57-49 152 48 84-9-83-69 35-185 142-176 15-97 119-178 362-126 175 38-101 48-101-188 0-167 328-141 424-135 251 16-195 26-383-401-265-605 718-780 1114-29 62 117-181-188-80-355 192-317 780 143 826 401 0 1 73 174 33 64-115-317 301-418 506-48 124 223 49 465 87 268 166-867 344 494 404 98 27-183 203-99 308 28-20-116 91-161 214-111 91 37 358 284 303 241-391-302-188-771 392-171 203 210-118 7 88-202 159-161 329 158 332 160 8-30-181-328 106-324 210 2 421 372 423 325 1-35-196-356 140-356 478 0 527 358 546 357 2 0 18-142 27-158 27-45 67-65 112-67z"/>
</svg>