<?xml version="1.0" encoding="utf-8"?>
<!-- Generator: Adobe Illustrator 23.0.3, SVG Export Plug-In . SVG Version: 6.00 Build 0)  -->
<svg version="1.1" id="svg2719" xmlns="http://www.w3.org/2000/svg" xmlns:xlink="http://www.w3.org/1999/xlink" x="0px" y="0px"
	 viewBox="0 0 1000 961.4" style="enable-background:new 0 0 1000 961.4;" xml:space="preserve">
<style type="text/css">
	.st0{fill:#498BC2;}
</style>
<path class="st0" d="M688.1,108.6C610.5,36.8,512,0.8,413.4,0v0c-6.6,0-13.1,0-19.7,0.3c-105,4.1-208.5,48-285.1,130.8
	C-44.6,296.7-34.5,557.4,131.1,710.6C278.4,846.9,501,853.9,656.2,737.3c19.3-14.5,37.5-30.9,54.4-49.1c16.9-18.3,31.8-37.7,44.8-58
	C859.7,466.3,835.5,244.9,688.1,108.6z M166.1,419.1c-2.5-64.6,20.6-126.6,65-174.6c44.4-48,104.4-75.8,169-78.3
	c3.1-0.1,6.2-0.2,9.2-0.2l2.5,0c60.3,0.5,118.2,23.7,163,65.1c48,44.4,75.8,104.5,78.3,169.1c2.5,64.6-20.6,126.6-65,174.6
	c-46.8,50.6-110.2,78.5-178.5,78.5c-61.1,0-119.8-23.1-165.3-65.2C196.4,543.7,168.6,483.7,166.1,419.1z"/>
<path id="path3325" class="st0" d="M688.1,108.6C610.5,36.8,512,0.8,413.4,0v0c-6.6,0-13.1,0-19.7,0.3
	c-105,4.1-208.5,48-285.1,130.8C-44.6,296.7-34.5,557.4,131.1,710.6C278.4,846.9,501,853.9,656.2,737.3
	c19.3-14.5,37.5-30.9,54.4-49.1c16.9-18.3,31.8-37.7,44.8-58C859.7,466.3,835.5,244.9,688.1,108.6z M230.8,602.8
	c-107.4-99.3-113.8-264.6-14.4-372c49.7-53.7,115.8-82.1,183-84.7c4.2-0.1,8.4-0.2,12.6-0.2v0c63,0.6,126.1,23.9,176.4,70.5
	c107.3,99.3,113.8,264.6,14.4,372C503.5,695.7,338.2,702.1,230.8,602.8z"/>
<g id="path3327">
	<path class="st0" d="M656.2,737.3l-49.1-45.4c-29.6-27.4-31.4-73.6-4-103.2c27.4-29.6,73.6-31.4,103.2-4l49.1,45.4
		c-12.9,20.3-27.8,39.7-44.8,58C693.7,706.4,675.5,722.8,656.2,737.3z"/>
	<path class="st0" d="M979.4,936.8c-14.4,15.5-34,23.4-53.6,23.4c-17.7,0-35.5-6.4-49.6-19.4L671.2,751.1
		c19.3-14.8,37.4-31.3,54.1-49.4c16.8-18.1,31.8-37.4,45-57.8l205.1,189.8C1005,861,1006.8,907.2,979.4,936.8z"/>
</g>
</svg>
