<?xml version="1.0" encoding="utf-8"?>
<!-- Generator: Adobe Illustrator 23.0.3, SVG Export Plug-In . SVG Version: 6.00 Build 0)  -->
<svg version="1.1" id="svg2719" xmlns="http://www.w3.org/2000/svg" xmlns:xlink="http://www.w3.org/1999/xlink" x="0px" y="0px"
	 viewBox="0 0 1000 961.4" style="enable-background:new 0 0 1000 961.4;" xml:space="preserve">
<style type="text/css">
	.st0{fill:#053D6C;}
</style>
<path class="st0" d="M620.7,307.6L225.5,662.2l-2.4,2.1l-1,2.8c0,0-7,22.3-14.4,48.7l-0.8,2.6c-19.3,70.3-15.4,81.5-13.8,86.4
	c1.8,4.9,3.7,11,25.6,11c21.4,0,61.9-5.9,140.2-24.1l3.4-0.7l399.9-349.7L620.7,307.6z M349,769.7c-51.4,11.9-111.7,22.3-131,23
	c0.3-7.7,2.6-26.2,14.4-68.6l0.8-2.6c5.7-20.1,11.2-38.2,13.3-44.7l5.7-5.2l103.1,92.5L349,769.7z"/>
</svg>
